<svg width="20" height="20" fill="none" xmlns="http://www.w3.org/2000/svg"><path d="M12.802.244a.555.555 0 00-.017 1.113c1.623.024 3.088.637 4.14 1.708 1.004 1.024 1.59 2.434 1.634 3.98a.555.555 0 101.109-.031c-.052-1.81-.74-3.493-1.953-4.729C16.445.992 14.696.273 12.802.245zM11.744 3.672a.555.555 0 01.583-.526c1.21.065 2.326.56 3.135 1.408.756.793 1.199 1.857 1.26 2.99a.556.556 0 01-.523.588.555.555 0 01-.583-.526c-.047-.883-.391-1.691-.953-2.281-.602-.631-1.449-1.016-2.396-1.067a.556.556 0 01-.523-.586zM11.23 6.379a.555.555 0 01.585-.524c.574.034 1.111.272 1.502.687.365.388.573.902.6 1.442a.556.556 0 01-.525.585.555.555 0 01-.58-.53 1.142 1.142 0 00-.298-.73 1.129 1.129 0 00-.764-.341.556.556 0 01-.52-.59z" fill="#002EFF"/><path fill-rule="evenodd" clip-rule="evenodd" d="M1.604 0C.72 0 0 .721 0 1.605 0 11.765 8.229 20 18.382 20c.884 0 1.604-.721 1.604-1.605v-3.673c0-.884-.72-1.605-1.604-1.605-1.251 0-2.45-.2-3.57-.57l-.006-.002-.008-.002a1.719 1.719 0 00-.485-.076c-.417 0-.813.161-1.122.452L9.4 16.371a17.36 17.36 0 01-6.061-6.267 312.97 312.97 0 002.289-2.033c.39-.348.74-.663.993-.89l.409-.367-.372-.413.372.413.003-.003.003-.003a1.564 1.564 0 00.414-1.623L7.45 5.18l-.001-.004c-.37-1.12-.57-2.32-.57-3.572C6.878.72 6.158 0 5.274 0h-3.67zm16.778 18.889a17.19 17.19 0 01-7.964-1.943l3.529-3.213.004-.004a.52.52 0 01.362-.151c.037 0 .094.008.16.027a12.46 12.46 0 003.91.623c.27 0 .493.224.493.494v3.673c0 .27-.224.494-.494.494zM4.888 7.243C4.21 7.85 3.417 8.557 2.81 9.091a17.228 17.228 0 01-1.7-7.486c0-.27.224-.494.494-.494h3.67c.27 0 .494.224.494.494 0 1.37.218 2.686.624 3.916a.453.453 0 01-.109.47l-.404.363-.991.89z" fill="#002EFF"/></svg>