<svg width="36" height="36" viewBox="0 0 36 36" fill="none" xmlns="http://www.w3.org/2000/svg">
<g clip-path="url(#clip0_22_13007)">
<path fill-rule="evenodd" clip-rule="evenodd" d="M18 5.22217C14.6863 5.22217 12 7.90846 12 11.2222C12 14.5359 14.6863 17.2222 18 17.2222C21.3137 17.2222 24 14.5359 24 11.2222C24 7.90846 21.3137 5.22217 18 5.22217ZM14 11.2222C14 9.01303 15.7908 7.22217 18 7.22217C20.2091 7.22217 22 9.01303 22 11.2222C22 13.4313 20.2091 15.2222 18 15.2222C15.7908 15.2222 14 13.4313 14 11.2222Z" fill="#002EFF"/>
<path fill-rule="evenodd" clip-rule="evenodd" d="M30 11.8857C30 15.595 26.7433 21.5348 23.5856 26H29.5C30.1295 26 30.7223 26.2964 31.1 26.8L35.6 32.8C36.5888 34.1185 35.6481 36 34 36H1.99997C0.351881 36 -0.588887 34.1185 0.399969 32.8L4.89997 26.8C5.27768 26.2964 5.87045 26 6.49997 26H12.4143C9.2566 21.5348 5.99997 15.595 5.99997 11.8857C5.99997 5.32142 11.3726 0 18 0C24.6274 0 30 5.32142 30 11.8857ZM26.5535 16.979C27.5053 14.8581 28 13.0949 28 11.8857C28 6.44399 23.5409 2 18 2C12.459 2 7.99997 6.44399 7.99997 11.8857C7.99997 13.0949 8.49463 14.8581 9.44642 16.979C10.3749 19.0481 11.6477 21.2614 12.9943 23.3034C14.3408 25.3454 15.729 27.1676 16.866 28.4582C17.3062 28.9579 17.6884 29.3547 18 29.646C18.3115 29.3547 18.6937 28.9579 19.134 28.4582C20.2709 27.1676 21.6591 25.3454 23.0056 23.3034C24.3522 21.2614 25.625 19.0481 26.5535 16.979ZM17.427 30.1168C17.3984 30.1334 17.4021 30.1279 17.4341 30.1126L17.427 30.1168ZM18.5659 30.1126C18.5826 30.1206 18.5923 30.1268 18.5923 30.1268C18.5923 30.1268 18.5866 30.1247 18.573 30.1168L18.5659 30.1126ZM18 32C18.6217 32 20.2444 30.385 22.1028 28H29.5L34 34H1.99997L6.49997 28H13.8971C15.7556 30.385 17.3783 32 18 32Z" fill="#002EFF"/>
</g>
<defs>
<clipPath id="clip0_22_13007">
<rect width="36" height="36" fill="white"/>
</clipPath>
</defs>
</svg>
