<svg width="16" height="16" fill="none" xmlns="http://www.w3.org/2000/svg"><path d="M6.667 13.333a.444.444 0 0 0 0 .89h2.666a.444.444 0 0 0 0-.89H6.667ZM10.335 4.682a.264.264 0 0 0-.298.02l-.495.429c-.078.067-.072.17.013.23 0 0 .765.529.765 1.67 0 1.08-.806 1.704-.806 1.704a.147.147 0 0 0-.007.236l.491.423a.268.268 0 0 0 .3.02s1.155-.742 1.155-2.38c0-1.625-1.117-2.352-1.117-2.352Z" fill="#002EFF"/><path fill-rule="evenodd" clip-rule="evenodd" d="M5.94 7.559s-.137-.014-.137.098c0 .63.468 1.079 1.203 1.079.546 0 .78-.132 1.109-.38.077-.058.16-.112.221-.044.044.047.623.584.623.584.073.068.053.15-.025.215-.077.065-.943.74-1.938.74-1.302 0-2.552-.568-2.552-2.708 0-1.725.974-2.699 2.404-2.699 1.535 0 2.402 1.076 2.402 2.526v.367c0 .15-.12.222-.22.222H5.94Zm1.828-1.471c-.148-.314-.454-.548-.92-.548s-.773.234-.921.548a1.409 1.409 0 0 0-.128.568h2.097a1.41 1.41 0 0 0-.128-.568Z" fill="#002EFF"/><path fill-rule="evenodd" clip-rule="evenodd" d="M4 0c-.982 0-1.778.796-1.778 1.778v12.444C2.222 15.204 3.018 16 4 16h8c.982 0 1.778-.796 1.778-1.778V1.778C13.778.796 12.982 0 12 0H4Zm-.889 1.778c0-.491.398-.89.889-.89h8c.49 0 .889.399.889.89v12.444c0 .491-.398.89-.89.89H4a.889.889 0 0 1-.888-.89V1.778Z" fill="#002EFF"/></svg>