<svg width="15" height="11" fill="none" xmlns="http://www.w3.org/2000/svg"><path fill-rule="evenodd" clip-rule="evenodd" d="M1.233.478C.553.478 0 1.03 0 1.71v6.784c0 .661.52 1.201 1.173 1.232a1.542 1.542 0 003.023.002h6.156a1.542 1.542 0 003.022 0h.062c.8 0 1.366-.75 1.366-1.56V5.767c0-.399-.134-.79-.383-1.084l-1.847-2.187a1.29 1.29 0 00-.984-.476h-1.72V1.71c0-.681-.552-1.233-1.234-1.233h-7.4zm9.12 8.634a1.542 1.542 0 013.021 0h.062c.367 0 .749-.371.749-.943V5.767c0-.266-.09-.512-.237-.686L12.1 2.894a.674.674 0 00-.512-.258h-1.72v6.476h.484zm-8.573.114v.39a.925.925 0 100-.39zm-1.163-.73c0 .32.244.583.557.613a1.542 1.542 0 013.022.003H9.25v-7.4a.617.617 0 00-.617-.617h-7.4a.617.617 0 00-.617.616v6.784zm11.246 1.85a.925.925 0 100-1.85.925.925 0 000 1.85z" fill="#191919"/><path fill-rule="evenodd" clip-rule="evenodd" d="M6.614 3.233a.184.184 0 00-.21.013l-.35.306c-.055.048-.05.121.01.164 0 0 .539.377.539 1.19 0 .77-.568 1.213-.568 1.213a.105.105 0 00-.005.169l.346.3c.055.049.15.054.211.015 0 0 .814-.529.814-1.695 0-1.158-.787-1.675-.787-1.675z" fill="#FF3D00"/><path fill-rule="evenodd" clip-rule="evenodd" d="M3.522 5.158s-.097-.009-.097.07c0 .448.33.767.848.767.385 0 .55-.093.782-.27.055-.04.113-.079.157-.03.03.033.439.414.439.414.05.048.037.106-.018.153-.055.047-.665.526-1.367.526-.918 0-1.8-.404-1.8-1.925 0-1.226.688-1.918 1.696-1.918 1.082 0 1.694.764 1.694 1.795v.261a.154.154 0 01-.156.157H3.522zm1.289-1.045c-.105-.223-.32-.39-.65-.39-.328 0-.544.167-.649.39-.06.137-.082.238-.09.404h1.479a1.01 1.01 0 00-.09-.404z" fill="#191919"/></svg>