<svg width="63" height="59" fill="none" xmlns="http://www.w3.org/2000/svg"><path fill-rule="evenodd" clip-rule="evenodd" d="M28.99.912A3.45 3.45 0 0 1 33.608.86l17.508 15.303a3.618 3.618 0 0 1 1.228 2.725V35.05c0 2.97-2.355 5.378-5.26 5.378H16.36c-2.905 0-5.26-2.408-5.26-5.378V18.864a3.62 3.62 0 0 1 1.17-2.672l1.688-1.543V6.425c0-1.98 1.57-3.584 3.507-3.584h2.21c1.87 0 3.4 1.498 3.5 3.384L28.992.912Zm-9.316 8.513-2.21 2.02v-5.02h2.21v3Zm29.162 9.463L31.328 3.585l-16.721 15.28V35.05c0 .99.785 1.793 1.753 1.793h30.723c.968 0 1.753-.803 1.753-1.793V18.888Z" fill="#002EFF"/><path d="M55.534 30.678c-.915-.326-1.397-1.349-1.078-2.283.32-.935 1.32-1.427 2.234-1.101 3.98 1.421 6.108 5.057 6.237 8.957.129 3.887-1.697 8.062-5.514 10.965-7.183 5.464-16.647 6.261-21.57 5.964-.966-.058-1.703-.907-1.646-1.895.057-.988.887-1.742 1.854-1.683 4.54.274 13.033-.518 19.268-5.261 2.943-2.239 4.19-5.317 4.103-7.97-.087-2.639-1.466-4.828-3.888-5.693ZM8.477 28.395c.32.934-.163 1.957-1.077 2.283-2.422.865-3.801 3.055-3.889 5.694-.088 2.652 1.16 5.73 4.103 7.968 5.182 3.942 11.921 5.155 16.658 5.295l-3.082-3.163a1.82 1.82 0 0 1 .005-2.535 1.727 1.727 0 0 1 2.48.005l4.613 4.736a3.641 3.641 0 0 1 0 5.059l-4.613 4.735a1.727 1.727 0 0 1-2.48.006 1.82 1.82 0 0 1-.005-2.535l2.664-2.736c-5.186-.198-12.51-1.56-18.334-5.99C1.703 44.312-.122 40.137.006 36.25c.13-3.9 2.258-7.536 6.237-8.957.914-.326 1.914.166 2.234 1.1Z" fill="#002EFF"/><path d="M20.284 20.024a1.748 1.748 0 0 0 2.262 2.666 14.573 14.573 0 0 1 9.541-3.46 14.614 14.614 0 0 1 9.163 3.337 1.748 1.748 0 1 0 2.227-2.695 18.11 18.11 0 0 0-11.362-4.138 18.07 18.07 0 0 0-11.831 4.29Z" fill="#FD6C98"/><path d="M24.054 27.4a1.748 1.748 0 0 1 .295-2.455 12.242 12.242 0 0 1 7.798-2.607c2.633.054 5.218.978 7.29 2.604a1.748 1.748 0 0 1-2.158 2.75 8.786 8.786 0 0 0-5.204-1.858 8.746 8.746 0 0 0-5.567 1.86 1.748 1.748 0 0 1-2.454-.294ZM27.71 32.1a1.748 1.748 0 0 1 .307-2.454 6.06 6.06 0 0 1 3.869-1.27 6.076 6.076 0 0 1 3.603 1.307 1.748 1.748 0 0 1-2.173 2.74 2.58 2.58 0 0 0-1.52-.553 2.564 2.564 0 0 0-1.633.537 1.748 1.748 0 0 1-2.453-.308Z" fill="#FD6C98"/></svg>